# AST/ASF file generated using VICON BodyLanguage
# -----------------------------------------------
:version 1.10
:name VICON
:units
  mass 1.0
  length 0.45
  angle deg
:documentation
   .ast/.asf automatically generated from VICON data using
   VICON BodyBuilder and BodyLanguage model FoxedUp or BRILLIANT.MOD
:root
   order TX TY TZ RX RY RZ
   axis XYZ
   position 0 0 0  
   orientation 0 0 0 
:bonedata
  begin
     id 1 
     name lhipjoint
     direction 0.623529 -0.717805 0.309788 
     length 2.23224 
     axis 0 0 0  XYZ
  end
  begin
     id 2 
     name lfemur
     direction 0.34202 -0.939693 0  
     length 7.11402  
     axis 0 0 20  XYZ
    dof rx ry rz
    limits (-160.0 20.0)
           (-70.0 70.0)
           (-60.0 70.0)
  end
  begin
     id 3 
     name ltibia
     direction 0.34202 -0.939693 0   
     length 6.78496   
     axis 0 0 20   XYZ
    dof rx
    limits (-10.0 170.0)
  end
  begin
     id 4 
     name lfoot
     direction 0.125078 -0.343648 0.930732   
     length 1.84054   
     axis -90 7.62852e-016 20   XYZ
    dof rx rz
    limits (-45.0 90.0)
           (-70.0 20.0)
  end
  begin
     id 5 
     name ltoes
     direction 1.53565e-011 -4.21893e-011 1   
     length 0.916474   
     axis -90 7.62852e-016 20   XYZ
    dof rx
    limits (-90.0 20.0)
  end
  begin
     id 6 
     name rhipjoint
     direction -0.564688 -0.757748 0.327026   
     length 2.11457  
     axis 0 0 0  XYZ 
  end
  begin
     id 7 
     name rfemur
     direction -0.34202 -0.939693 0   
     length 7.14609   
     axis 0 0 -20   XYZ
    dof rx ry rz
    limits (-160.0 20.0)
           (-70.0 70.0)
           (-70.0 60.0)
  end
  begin
     id 8 
     name rtibia
     direction -0.34202 -0.939693 0   
     length 6.78101   
     axis 0 0 -20   XYZ
    dof rx
    limits (-10.0 170.0)
 end
 begin
     id 9 
     name rfoot
     direction -0.0992671 -0.272734 0.956955   
     length 1.96168  
     axis -90 -7.62852e-016 -20   XYZ
    dof rx rz
    limits (-45.0 90.0)
           (-20.0 70.0)
  end
  begin
     id 10 
     name rtoes
     direction -1.5356e-011 -4.21891e-011 1   
     length 0.982933   
     axis -90 -7.62852e-016 -20   XYZ
    dof rx
    limits (-90.0 20.0)
  end
  begin
     id 11 
     name lowerback
     direction -0.00596953 0.998668 0.0512524   
     length 1.87557   
     axis 0 0 0   XYZ
    dof rx ry rz
    limits (-20.0 45.0)
           (-30.0 30.0)
           (-30.0 30.0)
  end
  begin
     id 12 
     name upperback
     direction 0.00584879 0.999652 0.0257308   
     length 1.87883   
     axis 0 0 0   XYZ
    dof rx ry rz
    limits (-20.0 45.0)
           (-30.0 30.0)
           (-30.0 30.0)
  end
  begin
     id 13 
     name thorax
     direction 0.010104 0.999947 0.00178881   
     length 1.87779   
     axis 0 0 0   XYZ
    dof rx ry rz
    limits (-20.0 45.0)
           (-30.0 30.0)
           (-30.0 30.0)
  end
  begin
     id 14 
     name lowerneck
     direction 0.0120771 0.995934 -0.0892773   
     length 1.40897   
     axis 0 0 0   XYZ
    dof rx ry rz
    limits (-20.0 45.0)
           (-30.0 30.0)
           (-30.0 30.0)
  end
  begin
     id 15 
     name upperneck
     direction -0.030568 0.999465 -0.0116366   
     length 1.38661   
     axis 0 0 0   XYZ
    dof rx ry rz
    limits (-20.0 45.0)
           (-30.0 30.0)
           (-30.0 30.0)
  end
  begin
     id 16
     name head
     direction -0.0170715 0.999854 -0.00104426  
     length 1.47052  
     axis 0 0 0   XYZ
    dof rx ry rz
    limits (-20.0 45.0)
           (-30.0 30.0)
           (-30.0 30.0)
  end
  begin
     id 17 
     name lclavicle
     direction 0.977763 0.206143 0.038532  
     length 3.02424  
     axis 0 0 0   XYZ
    dof ry rz
    limits (-20.0 10.0)
           (0.0 20.0)
  end
  begin
     id 18 
     name lhumerus
     direction 1 -4.48965e-011 -2.62654e-027   
     length 4.68382   
     axis 180 -30 -90   XYZ
    dof rx ry rz
    limits (-60.0 90.0)
           (-90.0 90.0)
           (-90.0 90.0)
  end
  begin
     id 19
     name lradius
     direction 1 -4.48973e-011 -1.54954e-027   
     length 2.98124   
     axis 180 -30 -90   XYZ
    dof rx
    limits (-10.0 170.0)
  end
  begin
     id 20
     name lwrist
     direction 1 -4.48959e-011 7.20928e-028   
     length 1.49062   
     axis -5.52449e-016 90 90   XYZ
    dof ry
    limits (-180.0 0.0)
 end
  begin
     id 21 
     name lhand
     direction 1 -4.48971e-011 1.44186e-027   
     length 0.707595   
     axis -9.20027e-016 90 90   XYZ
    dof rx rz
    limits (-90.0 90.0)
           (-45.0 45.0)
  end
  begin
     id 22 
     name lfingers
     direction 1 -4.48985e-011 2.88371e-027   
     length 0.570481   
     axis -1.84005e-015 90 90   XYZ
    dof rx
    limits (0.0 90.0)
  end
  begin
     id 23
     name lthumb
     direction 0.707107 -6.34929e-011 0.707107   
     length 0.819101   
     axis -90 45 2.85299e-015   XYZ
    dof rx rz
    limits (-45.0 45.0)
           (-45.0 45.0)
  end
  begin
     id 24 
     name rclavicle
     direction -0.958661 0.284411 -0.00895327   
     length 3.11921  
     axis 0 0 0   XYZ 
    dof ry rz
    limits (-10.0 20.0)
           (-20.0 0.0)
  end
  begin
     id 25 
     name rhumerus
     direction -1 -4.48963e-011 -4.22193e-027  
     length 4.75876   
     axis 180 30 90   XYZ
    dof rx ry rz
    limits (-90.0 60.0)
           (-90.0 90.0)
           (-90.0 90.0)
  end
  begin
     id 26 
     name rradius
     direction -1 -4.48968e-011 -1.07616e-027   
     length 2.93293   
     axis 180 30 90   XYZ
    dof rx
    limits (-10.0 170.0)
  end
  begin
     id 27 
     name rwrist
     direction -1 -4.48965e-011 7.20928e-028   
     length 1.46647   
     axis -5.52449e-016 -90 -90   XYZ
    dof ry
    limits (-180.0 0.0)
  end
  begin
     id 28
     name rhand
     direction -1 -4.48971e-011 1.44186e-027   
     length 0.831748   
     axis -9.20027e-016 -90 -90   XYZ
    dof rx rz
    limits (-90.0 90.0)
           (-45.0 45.0)
  end
  begin
     id 29
     name rfingers
     direction -1 -4.48961e-011 2.88371e-027   
     length 0.670577   
     axis -1.84005e-015 -90 -90   XYZ
    dof rx
    limits (0.0 90.0)
  end
  begin
     id 30
     name rthumb
     direction -0.707107 -6.34929e-011 0.707107   
     length 0.962818   
     axis -90 -45 -2.85299e-015   XYZ
    dof rx rz
    limits (-45.0 45.0)
           (-45.0 45.0)
  end
:hierarchy
  begin
    root lhipjoint rhipjoint lowerback
    lhipjoint lfemur
    lfemur ltibia
    ltibia lfoot
    lfoot ltoes
    rhipjoint rfemur
    rfemur rtibia
    rtibia rfoot
    rfoot rtoes
    lowerback upperback
    upperback thorax
    thorax lowerneck lclavicle rclavicle
    lowerneck upperneck
    upperneck head
    lclavicle lhumerus
    lhumerus lradius
    lradius lwrist
    lwrist lhand lthumb
    lhand lfingers
    rclavicle rhumerus
    rhumerus rradius
    rradius rwrist
    rwrist rhand rthumb
    rhand rfingers
  end

#!OML:ASF E:\id_vita\Project 1\Capture day 1\Session 1\Female.ASF
:FULLY-SPECIFIED
:DEGREES
252
root 25.8964 14.7952 1.98935 -143.816 -82.4712 190.418
lowerback 20.2213 1.64941 0.830528
upperback -1.05238 2.5155 1.46774
thorax -12.6175 1.1446 0.401644
lowerneck -1.85677 5.70576 -1.44885
upperneck -43.3952 2.32802 -8.65858
head -14.7602 0.896998 -3.31918
rclavicle -1.11319e-014 2.98177e-014
rhumerus -4.99786 -0.472074 -24.4674
rradius 117.041
rwrist 11.8463
rhand -49.9612 35.3047
rfingers 7.12502
rthumb -22.5518 6.60178
lclavicle -1.11319e-014 2.98177e-014
lhumerus -0.0466716 5.37103 35.7368
lradius 106.194
lwrist -3.93455
lhand -46.2426 41.5545
lfingers 7.12502
lthumb -18.979 70.6486
rfemur -90.4804 5.30088 16.5382
rtibia 40.6833
rfoot -10.9779 -19.551
rtoes -21.3524
lfemur -90.3341 -6.25325 -11.2129
ltibia 70.8809
lfoot -16.3188 18.4364
ltoes 10.1843
253
root 25.9513 14.7878 2.01822 -144.566 -82.3522 190.701
lowerback 19.3724 1.50904 1.0384
upperback -1.23076 2.38398 1.53486
thorax -12.326 1.0804 0.415814
lowerneck -1.08416 5.98825 -2.6614
upperneck -43.6887 2.88937 -7.90598
head -15.1298 1.28171 -2.88906
rclavicle -2.34566e-014 -4.6118e-014
rhumerus -6.41277 0.000780327 -24.2378
rradius 117.376
rwrist 11.4197
rhand -49.9401 34.512
rfingers 7.12502
rthumb -22.5316 5.80664
lclavicle -2.34566e-014 -4.6118e-014
lhumerus -1.26055 5.42758 35.5621
lradius 106.473
lwrist -3.45719
lhand -45.6322 40.8519
lfingers 7.12502
lthumb -18.3919 70.0024
rfemur -90.0258 5.20428 16.8853
rtibia 40.3699
rfoot -11.0884 -22.7155
rtoes -29.385
lfemur -88.871 -5.89403 -13.2494
ltibia 73.431
lfoot -16.559 18.0485
ltoes 10.1196
254
root 26.0187 14.7711 2.04153 -143.423 -82.3514 189.306
lowerback 18.2232 1.29736 1.10572
upperback -1.40882 2.11271 1.56791
thorax -11.8615 0.961087 0.51468
lowerneck -2.05234 5.85409 -1.90359
upperneck -42.2841 2.70103 -8.51508
head -14.1477 1.17522 -3.154
rclavicle 1.19271e-014 4.05521e-014
rhumerus -7.52128 0.24268 -24.0599
rradius 117.661
rwrist 10.9298
rhand -49.8362 34.4241
rfingers 7.12502
rthumb -22.4319 5.70675
lclavicle 1.19271e-014 4.05521e-014
lhumerus -2.27293 5.67159 35.2733
lradius 106.697
lwrist -3.04131
lhand -45.0456 40.1935
lfingers 7.12502
lthumb -17.8275 69.3963
rfemur -89.9015 4.95319 16.9406
rtibia 40.0525
rfoot -10.6633 -18.3807
rtoes -18.9919
lfemur -87.5993 -5.6166 -15.2567
ltibia 75.8421
lfoot -17.0737 17.4667
ltoes 4.6936
255
root 26.1054 14.7609 2.06263 -141.469 -82.4601 187.252
lowerback 17.0878 1.0679 1.2553
upperback -1.68936 1.82534 1.50215
thorax -11.5113 0.823263 0.453972
lowerneck -2.20482 5.7917 -1.48004
upperneck -41.4968 2.65584 -8.78287
head -13.7007 1.15292 -3.29131
rclavicle 3.97569e-016 -1.66979e-014
rhumerus -8.68185 0.376726 -24
rradius 117.863
rwrist 10.5206
rhand -49.9072 34.9915
rfingers 7.12502
rthumb -22.5 6.28237
lclavicle 3.97569e-016 -1.66979e-014
lhumerus -2.93385 5.80992 34.8362
lradius 106.769
lwrist -2.68252
lhand -44.8049 39.9465
lfingers 7.12502
lthumb -17.5959 69.1702
rfemur -89.9062 4.58431 16.9426
rtibia 39.5302
rfoot -10.078 -19.3439
rtoes -21.9576
lfemur -86.4677 -5.44955 -17.0093
ltibia 78.0839
lfoot -16.7598 16.332
ltoes 2.61795
256
root 26.1785 14.7782 2.08812 -142.628 -82.1926 187.752
lowerback 16.6183 1.02512 1.41099
upperback -1.87782 1.79302 1.44826
thorax -11.4439 0.798961 0.321647
lowerneck -1.58393 5.87988 -1.85175
upperneck -41.2823 2.94884 -8.40054
head -13.7345 1.34392 -3.11183
rclavicle -3.49861e-014 -6.44062e-014
rhumerus -9.72155 0.614082 -23.8798
rradius 117.893
rwrist 10.1811
rhand -50.3377 35.6723
rfingers 7.12502
rthumb -22.9132 7.01371
lclavicle -3.49861e-014 -6.44062e-014
lhumerus -3.52039 5.86845 34.4076
lradius 106.744
lwrist -2.34829
lhand -44.6154 39.7922
lfingers 7.12502
lthumb -17.4135 69.0322
rfemur -89.1229 4.52236 17.5895
rtibia 38.9162
rfoot -9.69243 -19.2579
rtoes -23.8039
lfemur -84.3585 -4.90914 -18.6528
ltibia 80.0728
lfoot -16.8678 15.3999
ltoes 0.73923
257
root 26.2239 14.8113 2.10972 -144.613 -81.4141 188.493
lowerback 16.4909 1.15078 1.15254
upperback -1.79275 1.89583 1.38575
thorax -11.2795 0.862968 0.375521
lowerneck -1.61754 5.87199 -1.49001
upperneck -40.4941 3.03732 -8.55329
head -13.3215 1.38398 -3.20753
rclavicle 3.57812e-015 -2.54444e-014
rhumerus -10.4077 0.684653 -23.7638
rradius 117.761
rwrist 9.97947
rhand -50.9606 35.789
rfingers 7.12502
rthumb -23.5109 7.20581
lclavicle 3.57812e-015 -2.54444e-014
lhumerus -4.01448 6.13813 34.0528
lradius 106.696
lwrist -2.06731
lhand -44.1237 39.4879
lfingers 7.12502
lthumb -16.9403 68.7691
rfemur -87.5747 4.83582 18.1888
rtibia 38.2458
rfoot -8.82689 -18.6733
rtoes -25.1208
lfemur -81.1686 -3.92878 -20.5263
ltibia 81.6977
lfoot -16.8615 14.7713
ltoes 0.679047
258
root 26.2933 14.8117 2.13678 -145.763 -81.013 189.028
lowerback 15.7928 1.16047 1.27594
upperback -1.92671 1.91972 1.33383
thorax -11.0174 0.86914 0.254874
lowerneck -1.001 5.93036 -1.74359
upperneck -40.2388 3.24848 -8.29841
head -13.3349 1.53191 -3.09341
rclavicle -2.10712e-014 1.55052e-014
rhumerus -11.4199 0.651974 -23.7146
rradius 117.988
rwrist 9.94265
rhand -51.0464 35.2821
rfingers 7.12502
rthumb -23.5931 6.70945
lclavicle -2.10712e-014 1.55052e-014
lhumerus -4.18108 6.29984 33.6908
lradius 106.539
lwrist -2.00856
lhand -43.7987 39.3186
lfingers 7.12502
lthumb -16.6274 68.6263
rfemur -86.8609 4.81206 18.8866
rtibia 37.6445
rfoot -8.27224 -18.2026
rtoes -26.0093
lfemur -78.9101 -3.14294 -22.0523
ltibia 83.0677
lfoot -16.4481 13.9426
ltoes 0.586686
259
root 26.3563 14.8319 2.16404 -146.437 -80.6204 188.577
lowerback 15.7434 1.15083 1.38926
upperback -2.02336 1.92014 1.21582
thorax -11.0887 0.858214 0.0619278
lowerneck -0.570098 5.90481 -2.21576
upperneck -39.6925 3.42165 -7.80965
head -13.1951 1.67264 -2.82591
rclavicle -1.59028e-015 7.71285e-014
rhumerus -12.6245 0.577981 -23.4764
rradius 118.501
rwrist 9.68822
rhand -50.1182 33.9995
rfingers 7.12502
rthumb -22.7026 5.31505
lclavicle -1.59028e-015 7.71285e-014
lhumerus -4.19256 6.43814 33.3095
lradius 106.267
lwrist -1.91522
lhand -44.0327 39.5168
lfingers 7.12502
lthumb -16.8527 68.8055
rfemur -85.5815 4.64494 19.5599
rtibia 37.2035
rfoot -10.1362 -17.9619
rtoes -22.7657
lfemur -75.7954 -2.38928 -23.636
ltibia 83.9192
lfoot -16.0512 13.3482
ltoes -0.210706
260
root 26.4183 14.8529 2.18732 -145.786 -80.1726 186.709
lowerback 15.766 1.13552 1.18033
upperback -2.06385 1.84575 1.05398
thorax -11.1482 0.830839 0.0210407
lowerneck -0.61536 5.85565 -2.24457
upperneck -38.7395 3.55438 -7.60831
head -12.7486 1.75694 -2.71381
rclavicle -2.78299e-015 5.1684e-014
rhumerus -13.4615 0.316898 -22.9936
rradius 118.794
rwrist 9.10836
rhand -48.9924 31.7454
rfingers 7.12502
rthumb -21.6217 2.93259
lclavicle -2.78299e-015 5.1684e-014
lhumerus -4.2572 6.69646 32.9625
lradius 106.087
lwrist -1.97066
lhand -43.5638 39.4427
lfingers 7.12502
lthumb -16.4013 68.7693
rfemur -84.2493 4.46406 19.743
rtibia 36.8081
rfoot -10.3599 -17.5448
rtoes -22.1792
lfemur -72.3707 -1.6784 -25.3037
ltibia 84.1681
lfoot -15.7255 12.8304
ltoes -1.01086
